<svg width="107" height="25" viewBox="0 0 107 25" fill="none" xmlns="http://www.w3.org/2000/svg">
<path d="M7.83984 12.8446C7.83984 10.2947 9.90693 8.22766 12.4568 8.22766H19.3822C21.9321 8.22766 23.9992 10.2947 23.9992 12.8446C23.9992 15.3945 21.9321 17.4616 19.3822 17.4616H12.4568C9.90693 17.4616 7.83984 15.3945 7.83984 12.8446Z" fill="#FF868E"/>
<path d="M12.4568 24.387C9.90693 24.387 7.83984 22.3199 7.83984 19.77L7.83984 12.8446C7.83984 10.2947 9.90693 8.2276 12.4568 8.2276V8.2276C15.0067 8.2276 17.0738 10.2947 17.0738 12.8446V19.77C17.0738 22.3199 15.0067 24.387 12.4568 24.387V24.387Z" fill="#FF868E"/>
<path d="M11.5427 3.27256C11.5427 4.86624 10.2508 6.15817 8.65709 6.15817C7.06341 6.15817 5.77148 4.86624 5.77148 3.27256C5.77148 1.67889 7.06341 0.386963 8.65709 0.386963C10.2508 0.386963 11.5427 1.67889 11.5427 3.27256Z" fill="#FF868E"/>
<path d="M5.7712 17.1235C5.7712 18.7172 4.47927 20.0091 2.8856 20.0091C1.29193 20.0091 0 18.7172 0 17.1235C0 15.5298 1.29193 14.2379 2.8856 14.2379C4.47927 14.2379 5.7712 15.5298 5.7712 17.1235Z" fill="#FF868E"/>
<path d="M19.6228 3.27256C19.6228 4.86624 18.3308 6.15817 16.7372 6.15817C15.1435 6.15817 13.8516 4.86624 13.8516 3.27256C13.8516 1.67889 15.1435 0.386963 16.7372 0.386963C18.3308 0.386963 19.6228 1.67889 19.6228 3.27256Z" fill="#FF868E"/>
<path d="M5.7712 9.0438C5.7712 10.6375 4.47927 11.9294 2.8856 11.9294C1.29193 11.9294 0 10.6375 0 9.0438C0 7.45013 1.29193 6.1582 2.8856 6.1582C4.47927 6.1582 5.7712 7.45013 5.7712 9.0438Z" fill="#FF868E"/>
<path d="M31.8945 19.1869V6.82214H37.6929C38.6657 6.82214 39.4593 7.00774 40.0737 7.37894C40.7009 7.75014 41.1681 8.25574 41.4753 8.89574C41.7825 9.53574 41.9361 10.2653 41.9361 11.0845C41.9361 11.9165 41.7569 12.6525 41.3985 13.2925C41.0529 13.9325 40.5537 14.4317 39.9009 14.7901C39.2609 15.1357 38.4993 15.3085 37.6161 15.3085H34.4865V19.1869H31.8945ZM34.4865 13.2541H37.0785C37.8209 13.2541 38.3777 13.0621 38.7489 12.6781C39.1329 12.2813 39.3249 11.7501 39.3249 11.0845C39.3249 10.3677 39.1457 9.82374 38.7873 9.45254C38.4289 9.06854 37.8913 8.87654 37.1745 8.87654H34.4865V13.2541Z" fill="#1D1D1D"/>
<path d="M48.1119 19.3789C46.5375 19.3789 45.2895 18.9885 44.3679 18.2077C43.4463 17.4141 42.9855 16.2173 42.9855 14.6173C42.9855 13.1709 43.3695 12.0253 44.1375 11.1805C44.9183 10.3229 46.0767 9.89414 47.6127 9.89414C49.0207 9.89414 50.0959 10.2653 50.8383 11.0077C51.5935 11.7373 51.9711 12.6973 51.9711 13.8877V15.5389L45.3855 15.5389C45.5263 16.2685 45.8591 16.7677 46.3839 17.0365C46.9215 17.3053 47.6767 17.4397 48.6495 17.4397C49.1359 17.4397 49.6287 17.3949 50.1279 17.3053C50.6399 17.2157 51.0751 17.1005 51.4335 16.9597V18.8029C51.0111 18.9949 50.5183 19.1357 49.9551 19.2253C49.3919 19.3277 48.7775 19.3789 48.1119 19.3789ZM45.3855 13.9453H49.7055V13.4461C49.7055 12.9213 49.5519 12.5117 49.2447 12.2173C48.9375 11.9101 48.4191 11.7565 47.6895 11.7565C46.8319 11.7565 46.2303 11.9293 45.8847 12.2749C45.5519 12.6205 45.3855 13.1773 45.3855 13.9453Z" fill="#1D1D1D"/>
<path d="M57.3854 19.3789C56.3358 19.3789 55.555 19.1037 55.043 18.5533C54.5438 18.0029 54.2942 17.2541 54.2942 16.3069V12.0829H53.0078V10.0861H54.2942V8.12774L56.8862 7.35974V10.0861H59.1902L59.0366 12.0829H56.8862V16.1341C56.8862 16.6333 57.0014 16.9789 57.2318 17.1709C57.4622 17.3501 57.8206 17.4397 58.307 17.4397C58.6654 17.4397 59.0366 17.3757 59.4206 17.2477V19.0333C59.139 19.1485 58.8318 19.2317 58.499 19.2829C58.1662 19.3469 57.795 19.3789 57.3854 19.3789Z" fill="#1D1D1D"/>
<path d="M63.9572 19.3789C63.2788 19.3789 62.6324 19.3277 62.018 19.2253C61.4036 19.1357 60.9108 19.0205 60.5396 18.8797V16.7293C60.9876 16.9085 61.4932 17.0493 62.0564 17.1517C62.6196 17.2413 63.138 17.2861 63.6116 17.2861C64.2516 17.2861 64.6996 17.2477 64.9556 17.1709C65.2244 17.0941 65.3588 16.9213 65.3588 16.6525C65.3588 16.3453 65.154 16.1213 64.7444 15.9805C64.3476 15.8397 63.7524 15.6413 62.9588 15.3853C62.1268 15.1037 61.4868 14.7645 61.0388 14.3677C60.5908 13.9709 60.3668 13.3821 60.3668 12.6013C60.3668 11.7309 60.6804 11.0653 61.3076 10.6045C61.9476 10.1309 62.9716 9.89414 64.3796 9.89414C64.9428 9.89414 65.474 9.93894 65.9732 10.0285C66.4724 10.1053 66.8948 10.2013 67.2404 10.3165V12.4477C66.8948 12.2813 66.498 12.1597 66.05 12.0829C65.602 11.9933 65.186 11.9485 64.802 11.9485C64.2516 11.9485 63.81 11.9869 63.4772 12.0637C63.1572 12.1405 62.9972 12.3069 62.9972 12.5629C62.9972 12.8445 63.17 13.0429 63.5156 13.1581C63.874 13.2733 64.4244 13.4461 65.1668 13.6765C65.8964 13.8941 66.466 14.1309 66.8756 14.3869C67.2852 14.6429 67.5732 14.9501 67.7396 15.3085C67.906 15.6541 67.9892 16.0893 67.9892 16.6141C67.9892 18.4573 66.6452 19.3789 63.9572 19.3789Z" fill="#1D1D1D"/>
<path d="M69.7883 19.1869V6.82214L75.5867 6.82214C76.5595 6.82214 77.3531 7.00774 77.9675 7.37894C78.5947 7.75014 79.0619 8.25574 79.3691 8.89574C79.6763 9.53574 79.8299 10.2653 79.8299 11.0845C79.8299 11.9165 79.6507 12.6525 79.2923 13.2925C78.9467 13.9325 78.4475 14.4317 77.7947 14.7901C77.1547 15.1357 76.3931 15.3085 75.5099 15.3085H72.3803V19.1869H69.7883ZM72.3803 13.2541H74.9723C75.7147 13.2541 76.2715 13.0621 76.6427 12.6781C77.0267 12.2813 77.2187 11.7501 77.2187 11.0845C77.2187 10.3677 77.0395 9.82374 76.6811 9.45254C76.3227 9.06854 75.7851 8.87654 75.0683 8.87654H72.3803V13.2541Z" fill="#1D1D1D"/>
<path d="M83.7491 19.3789C83.1731 19.3789 82.6355 19.2765 82.1363 19.0717C81.6499 18.8541 81.2531 18.5405 80.9459 18.1309C80.6515 17.7085 80.5043 17.1837 80.5043 16.5565C80.5043 15.6605 80.8179 14.9437 81.4451 14.4061C82.0851 13.8685 83.0259 13.5997 84.2675 13.5997H86.9555V13.3501C86.9555 12.7869 86.7955 12.3901 86.4755 12.1597C86.1683 11.9293 85.5411 11.8141 84.5939 11.8141C83.5571 11.8141 82.5587 11.9741 81.5987 12.2941V10.4701C82.0211 10.3037 82.5331 10.1693 83.1347 10.0669C83.7491 9.95174 84.4147 9.89414 85.1315 9.89414C86.5011 9.89414 87.5571 10.1757 88.2995 10.7389C89.0547 11.2893 89.4323 12.1789 89.4323 13.4077V19.1869H87.1859L87.0515 18.3613C86.6931 18.6813 86.2515 18.9309 85.7267 19.1101C85.2019 19.2893 84.5427 19.3789 83.7491 19.3789ZM84.4595 17.6701C85.0355 17.6701 85.5347 17.5741 85.9571 17.3821C86.3795 17.1901 86.7123 16.9469 86.9555 16.6525V15.2125H84.3251C83.3139 15.2125 82.8083 15.6285 82.8083 16.4605C82.8083 17.2669 83.3587 17.6701 84.4595 17.6701Z" fill="#1D1D1D"/>
<path d="M93.048 19.1869L90.648 10.0861H93.24L94.6224 15.9997L96.1392 11.2573V10.0861H98.1168L99.8448 15.9997L101.189 10.0861H103.762L101.381 19.1869H99L97.2528 13.8685L95.4672 19.1869H93.048Z" fill="#1D1D1D"/>
</svg>
